<svg width="33" height="33" viewBox="0 0 33 33" fill="none" xmlns="http://www.w3.org/2000/svg">
<path d="M16.5 2.0625C8.52715 2.0625 2.0625 8.52715 2.0625 16.5C2.0625 24.4729 8.52715 30.9375 16.5 30.9375C24.4729 30.9375 30.9375 24.4729 30.9375 16.5C30.9375 8.52715 24.4729 2.0625 16.5 2.0625ZM17.5312 23.4609C17.5312 23.6027 17.4152 23.7188 17.2734 23.7188H15.7266C15.5848 23.7188 15.4688 23.6027 15.4688 23.4609V14.6953C15.4688 14.5535 15.5848 14.4375 15.7266 14.4375H17.2734C17.4152 14.4375 17.5312 14.5535 17.5312 14.6953V23.4609ZM16.5 12.375C16.0952 12.3667 15.7098 12.2001 15.4264 11.9109C15.1431 11.6217 14.9844 11.233 14.9844 10.8281C14.9844 10.4233 15.1431 10.0345 15.4264 9.74531C15.7098 9.45612 16.0952 9.28951 16.5 9.28125C16.9048 9.28951 17.2902 9.45612 17.5736 9.74531C17.8569 10.0345 18.0156 10.4233 18.0156 10.8281C18.0156 11.233 17.8569 11.6217 17.5736 11.9109C17.2902 12.2001 16.9048 12.3667 16.5 12.375Z" fill="white"/>
</svg>
